{
 "asset": {
  "generator": "Khronos glTF Blender I/O v4.3.47",
  "version": "2.0"
 },
 "scene": 0,
 "scenes": [
  {
   "name": "Scene",
   "nodes": [
    0
   ]
  }
 ],
 "nodes": [
  {
   "mesh": 0,
   "name": "Brick_BottomTrim"
  }
 ],
 "materials": [
  {
   "doubleSided": true,
   "name": "MI_RedBrick",
   "pbrMetallicRoughness": {
    "baseColorTexture": {
     "index": 0
    }
   }
  },
  {
   "doubleSided": true,
   "name": "MI_Trim",
   "pbrMetallicRoughness": {
    "baseColorTexture": {
     "index": 1
    }
   }
  },
  {
   "doubleSided": true,
   "name": "MI_InteriorWall",
   "pbrMetallicRoughness": {
    "baseColorTexture": {
     "index": 2
    }
   }
  }
 ],
 "meshes": [
  {
   "name": "Cube.037",
   "primitives": [
    {
     "attributes": {
      "POSITION": 0,
      "NORMAL": 1,
      "TEXCOORD_0": 2
     },
     "indices": 6,
     "material": 0
    },
    {
     "attributes": {
      "POSITION": 7,
      "NORMAL": 8,
      "TEXCOORD_0": 9
     },
     "indices": 13,
     "material": 1
    },
    {
     "attributes": {
      "POSITION": 14,
      "NORMAL": 15,
      "TEXCOORD_0": 16
     },
     "indices": 20,
     "material": 2
    }
   ]
  }
 ],
 "textures": [
  {
   "source": 0,
   "sampler": 0
  },
  {
   "source": 1,
   "sampler": 0
  },
  {
   "source": 2,
   "sampler": 0
  }
 ],
 "images": [
  {
   "uri": "textures/T_RedBrick_BaseColor.png"
  },
  {
   "uri": "textures/T_Trim_BaseColor.png"
  },
  {
   "uri": "textures/T_RedBrick_BaseColor.png"
  }
 ],
 "accessors": [
  {
   "bufferView": 0,
   "componentType": 5126,
   "count": 86,
   "max": [
    1,
    3,
    0.028963593766093254
   ],
   "min": [
    -1,
    0.33582091331481934,
    -1.778826117515564e-07
   ],
   "type": "VEC3"
  },
  {
   "bufferView": 1,
   "componentType": 5126,
   "count": 86,
   "type": "VEC3"
  },
  {
   "bufferView": 2,
   "componentType": 5126,
   "count": 86,
   "type": "VEC2"
  },
  {
   "bufferView": 3,
   "componentType": 5126,
   "count": 86,
   "type": "VEC2"
  },
  {
   "bufferView": 4,
   "componentType": 5121,
   "count": 86,
   "normalized": true,
   "type": "VEC4"
  },
  {
   "bufferView": 5,
   "componentType": 5123,
   "count": 86,
   "normalized": true,
   "type": "VEC4"
  },
  {
   "bufferView": 6,
   "componentType": 5123,
   "count": 132,
   "type": "SCALAR"
  },
  {
   "bufferView": 7,
   "componentType": 5126,
   "count": 4,
   "max": [
    1,
    0.33582091331481934,
    1.4679198301337237e-08
   ],
   "min": [
    -1,
    0,
    0
   ],
   "type": "VEC3"
  },
  {
   "bufferView": 8,
   "componentType": 5126,
   "count": 4,
   "type": "VEC3"
  },
  {
   "bufferView": 9,
   "componentType": 5126,
   "count": 4,
   "type": "VEC2"
  },
  {
   "bufferView": 10,
   "componentType": 5126,
   "count": 4,
   "type": "VEC2"
  },
  {
   "bufferView": 11,
   "componentType": 5121,
   "count": 4,
   "normalized": true,
   "type": "VEC4"
  },
  {
   "bufferView": 12,
   "componentType": 5123,
   "count": 4,
   "normalized": true,
   "type": "VEC4"
  },
  {
   "bufferView": 13,
   "componentType": 5123,
   "count": 6,
   "type": "SCALAR"
  },
  {
   "bufferView": 14,
   "componentType": 5126,
   "count": 10,
   "max": [
    1,
    3.000000476837158,
    -0.2000000923871994
   ],
   "min": [
    -1,
    0,
    -0.2000000923871994
   ],
   "type": "VEC3"
  },
  {
   "bufferView": 15,
   "componentType": 5126,
   "count": 10,
   "type": "VEC3"
  },
  {
   "bufferView": 16,
   "componentType": 5126,
   "count": 10,
   "type": "VEC2"
  },
  {
   "bufferView": 17,
   "componentType": 5126,
   "count": 10,
   "type": "VEC2"
  },
  {
   "bufferView": 18,
   "componentType": 5121,
   "count": 10,
   "normalized": true,
   "type": "VEC4"
  },
  {
   "bufferView": 19,
   "componentType": 5123,
   "count": 10,
   "normalized": true,
   "type": "VEC4"
  },
  {
   "bufferView": 20,
   "componentType": 5123,
   "count": 18,
   "type": "SCALAR"
  }
 ],
 "bufferViews": [
  {
   "buffer": 0,
   "byteLength": 1032,
   "byteOffset": 0,
   "target": 34962
  },
  {
   "buffer": 0,
   "byteLength": 1032,
   "byteOffset": 1032,
   "target": 34962
  },
  {
   "buffer": 0,
   "byteLength": 688,
   "byteOffset": 2064,
   "target": 34962
  },
  {
   "buffer": 0,
   "byteLength": 688,
   "byteOffset": 2752,
   "target": 34962
  },
  {
   "buffer": 0,
   "byteLength": 344,
   "byteOffset": 3440,
   "target": 34962
  },
  {
   "buffer": 0,
   "byteLength": 688,
   "byteOffset": 3784,
   "target": 34962
  },
  {
   "buffer": 0,
   "byteLength": 264,
   "byteOffset": 4472,
   "target": 34963
  },
  {
   "buffer": 0,
   "byteLength": 48,
   "byteOffset": 4736,
   "target": 34962
  },
  {
   "buffer": 0,
   "byteLength": 48,
   "byteOffset": 4784,
   "target": 34962
  },
  {
   "buffer": 0,
   "byteLength": 32,
   "byteOffset": 4832,
   "target": 34962
  },
  {
   "buffer": 0,
   "byteLength": 32,
   "byteOffset": 4864,
   "target": 34962
  },
  {
   "buffer": 0,
   "byteLength": 16,
   "byteOffset": 4896,
   "target": 34962
  },
  {
   "buffer": 0,
   "byteLength": 32,
   "byteOffset": 4912,
   "target": 34962
  },
  {
   "buffer": 0,
   "byteLength": 12,
   "byteOffset": 4944,
   "target": 34963
  },
  {
   "buffer": 0,
   "byteLength": 120,
   "byteOffset": 4956,
   "target": 34962
  },
  {
   "buffer": 0,
   "byteLength": 120,
   "byteOffset": 5076,
   "target": 34962
  },
  {
   "buffer": 0,
   "byteLength": 80,
   "byteOffset": 5196,
   "target": 34962
  },
  {
   "buffer": 0,
   "byteLength": 80,
   "byteOffset": 5276,
   "target": 34962
  },
  {
   "buffer": 0,
   "byteLength": 40,
   "byteOffset": 5356,
   "target": 34962
  },
  {
   "buffer": 0,
   "byteLength": 80,
   "byteOffset": 5396,
   "target": 34962
  },
  {
   "buffer": 0,
   "byteLength": 36,
   "byteOffset": 5476,
   "target": 34963
  }
 ],
 "samplers": [
  {
   "magFilter": 9729,
   "minFilter": 9987,
   "wrapS": 10497,
   "wrapT": 10497
  }
 ],
 "buffers": [
  {
   "byteLength": 5512,
   "uri": "Brick_BottomTrim.bin"
  }
 ]
}