{
 "asset": {
  "generator": "Khronos glTF Blender I/O v4.3.47",
  "version": "2.0"
 },
 "scene": 0,
 "scenes": [
  {
   "name": "Scene",
   "nodes": [
    0
   ]
  }
 ],
 "nodes": [
  {
   "mesh": 0,
   "name": "Metal_Column_Center"
  }
 ],
 "materials": [
  {
   "doubleSided": true,
   "name": "MI_Trim_MetalConcrete",
   "pbrMetallicRoughness": {
    "baseColorTexture": {
     "index": 0
    }
   }
  }
 ],
 "meshes": [
  {
   "name": "Cube.158",
   "primitives": [
    {
     "attributes": {
      "POSITION": 0,
      "NORMAL": 1,
      "TEXCOORD_0": 2
     },
     "indices": 4,
     "material": 0
    }
   ]
  }
 ],
 "textures": [
  {
   "source": 0,
   "sampler": 0
  }
 ],
 "images": [
  {
   "uri": "textures/T_MetalConcrete_BaseColor.png"
  }
 ],
 "accessors": [
  {
   "bufferView": 0,
   "componentType": 5126,
   "count": 32,
   "max": [
    0.24888014793395996,
    2.999999761581421,
    0.24911034107208252
   ],
   "min": [
    -0.24888017773628235,
    0,
    -0.2491103708744049
   ],
   "type": "VEC3"
  },
  {
   "bufferView": 1,
   "componentType": 5126,
   "count": 32,
   "type": "VEC3"
  },
  {
   "bufferView": 2,
   "componentType": 5126,
   "count": 32,
   "type": "VEC2"
  },
  {
   "bufferView": 3,
   "componentType": 5126,
   "count": 32,
   "type": "VEC2"
  },
  {
   "bufferView": 4,
   "componentType": 5123,
   "count": 48,
   "type": "SCALAR"
  }
 ],
 "bufferViews": [
  {
   "buffer": 0,
   "byteLength": 384,
   "byteOffset": 0,
   "target": 34962
  },
  {
   "buffer": 0,
   "byteLength": 384,
   "byteOffset": 384,
   "target": 34962
  },
  {
   "buffer": 0,
   "byteLength": 256,
   "byteOffset": 768,
   "target": 34962
  },
  {
   "buffer": 0,
   "byteLength": 256,
   "byteOffset": 1024,
   "target": 34962
  },
  {
   "buffer": 0,
   "byteLength": 96,
   "byteOffset": 1280,
   "target": 34963
  }
 ],
 "samplers": [
  {
   "magFilter": 9729,
   "minFilter": 9987,
   "wrapS": 10497,
   "wrapT": 10497
  }
 ],
 "buffers": [
  {
   "byteLength": 1376,
   "uri": "Metal_Column_Center.bin"
  }
 ]
}