{
 "asset": {
  "generator": "Khronos glTF Blender I/O v4.3.47",
  "version": "2.0"
 },
 "scene": 0,
 "scenes": [
  {
   "name": "Scene",
   "nodes": [
    0
   ]
  }
 ],
 "nodes": [
  {
   "mesh": 0,
   "name": "Prop_Bollard"
  }
 ],
 "materials": [
  {
   "doubleSided": true,
   "name": "MI_Trim_MetalConcrete",
   "pbrMetallicRoughness": {
    "baseColorTexture": {
     "index": 0
    }
   }
  }
 ],
 "meshes": [
  {
   "name": "Cylinder",
   "primitives": [
    {
     "attributes": {
      "POSITION": 0,
      "NORMAL": 1,
      "TEXCOORD_0": 2
     },
     "indices": 4,
     "material": 0
    }
   ]
  }
 ],
 "textures": [
  {
   "source": 0,
   "sampler": 0
  }
 ],
 "images": [
  {
   "uri": "textures/T_MetalConcrete_BaseColor.png"
  }
 ],
 "accessors": [
  {
   "bufferView": 0,
   "componentType": 5126,
   "count": 225,
   "max": [
    0.10813376307487488,
    0.8917761445045471,
    0.1136985495686531
   ],
   "min": [
    -0.10813376307487488,
    0,
    -0.1136985495686531
   ],
   "type": "VEC3"
  },
  {
   "bufferView": 1,
   "componentType": 5126,
   "count": 225,
   "type": "VEC3"
  },
  {
   "bufferView": 2,
   "componentType": 5126,
   "count": 225,
   "type": "VEC2"
  },
  {
   "bufferView": 3,
   "componentType": 5126,
   "count": 225,
   "type": "VEC2"
  },
  {
   "bufferView": 4,
   "componentType": 5123,
   "count": 570,
   "type": "SCALAR"
  }
 ],
 "bufferViews": [
  {
   "buffer": 0,
   "byteLength": 2700,
   "byteOffset": 0,
   "target": 34962
  },
  {
   "buffer": 0,
   "byteLength": 2700,
   "byteOffset": 2700,
   "target": 34962
  },
  {
   "buffer": 0,
   "byteLength": 1800,
   "byteOffset": 5400,
   "target": 34962
  },
  {
   "buffer": 0,
   "byteLength": 1800,
   "byteOffset": 7200,
   "target": 34962
  },
  {
   "buffer": 0,
   "byteLength": 1140,
   "byteOffset": 9000,
   "target": 34963
  }
 ],
 "samplers": [
  {
   "magFilter": 9729,
   "minFilter": 9987,
   "wrapS": 10497,
   "wrapT": 10497
  }
 ],
 "buffers": [
  {
   "byteLength": 10140,
   "uri": "Prop_Bollard.bin"
  }
 ]
}