{
 "asset": {
  "generator": "Khronos glTF Blender I/O v4.3.47",
  "version": "2.0"
 },
 "scene": 0,
 "scenes": [
  {
   "name": "Scene",
   "nodes": [
    0
   ]
  }
 ],
 "nodes": [
  {
   "mesh": 0,
   "name": "Trim_FirstFloor_Wall"
  }
 ],
 "materials": [
  {
   "doubleSided": true,
   "name": "MI_Trim",
   "pbrMetallicRoughness": {
    "baseColorTexture": {
     "index": 0
    }
   }
  },
  {
   "doubleSided": true,
   "name": "MI_InteriorWall",
   "pbrMetallicRoughness": {
    "baseColorTexture": {
     "index": 1
    }
   }
  }
 ],
 "meshes": [
  {
   "name": "Cube.059",
   "primitives": [
    {
     "attributes": {
      "POSITION": 0,
      "NORMAL": 1,
      "TEXCOORD_0": 2
     },
     "indices": 6,
     "material": 0
    },
    {
     "attributes": {
      "POSITION": 7,
      "NORMAL": 8,
      "TEXCOORD_0": 9
     },
     "indices": 13,
     "material": 1
    }
   ]
  }
 ],
 "textures": [
  {
   "source": 0,
   "sampler": 0
  },
  {
   "source": 1,
   "sampler": 0
  }
 ],
 "images": [
  {
   "uri": "textures/T_Trim_BaseColor.png"
  },
  {
   "uri": "textures/T_RedBrick_BaseColor.png"
  }
 ],
 "accessors": [
  {
   "bufferView": 0,
   "componentType": 5126,
   "count": 68,
   "max": [
    1,
    3,
    0.047796014696359634
   ],
   "min": [
    -1,
    0,
    2.9802322387695312e-08
   ],
   "type": "VEC3"
  },
  {
   "bufferView": 1,
   "componentType": 5126,
   "count": 68,
   "type": "VEC3"
  },
  {
   "bufferView": 2,
   "componentType": 5126,
   "count": 68,
   "type": "VEC2"
  },
  {
   "bufferView": 3,
   "componentType": 5126,
   "count": 68,
   "type": "VEC2"
  },
  {
   "bufferView": 4,
   "componentType": 5121,
   "count": 68,
   "normalized": true,
   "type": "VEC4"
  },
  {
   "bufferView": 5,
   "componentType": 5123,
   "count": 68,
   "normalized": true,
   "type": "VEC4"
  },
  {
   "bufferView": 6,
   "componentType": 5123,
   "count": 132,
   "type": "SCALAR"
  },
  {
   "bufferView": 7,
   "componentType": 5126,
   "count": 10,
   "max": [
    1,
    3.000000476837158,
    -0.2000000923871994
   ],
   "min": [
    -1,
    0,
    -0.2000000923871994
   ],
   "type": "VEC3"
  },
  {
   "bufferView": 8,
   "componentType": 5126,
   "count": 10,
   "type": "VEC3"
  },
  {
   "bufferView": 9,
   "componentType": 5126,
   "count": 10,
   "type": "VEC2"
  },
  {
   "bufferView": 10,
   "componentType": 5126,
   "count": 10,
   "type": "VEC2"
  },
  {
   "bufferView": 11,
   "componentType": 5121,
   "count": 10,
   "normalized": true,
   "type": "VEC4"
  },
  {
   "bufferView": 12,
   "componentType": 5123,
   "count": 10,
   "normalized": true,
   "type": "VEC4"
  },
  {
   "bufferView": 13,
   "componentType": 5123,
   "count": 18,
   "type": "SCALAR"
  }
 ],
 "bufferViews": [
  {
   "buffer": 0,
   "byteLength": 816,
   "byteOffset": 0,
   "target": 34962
  },
  {
   "buffer": 0,
   "byteLength": 816,
   "byteOffset": 816,
   "target": 34962
  },
  {
   "buffer": 0,
   "byteLength": 544,
   "byteOffset": 1632,
   "target": 34962
  },
  {
   "buffer": 0,
   "byteLength": 544,
   "byteOffset": 2176,
   "target": 34962
  },
  {
   "buffer": 0,
   "byteLength": 272,
   "byteOffset": 2720,
   "target": 34962
  },
  {
   "buffer": 0,
   "byteLength": 544,
   "byteOffset": 2992,
   "target": 34962
  },
  {
   "buffer": 0,
   "byteLength": 264,
   "byteOffset": 3536,
   "target": 34963
  },
  {
   "buffer": 0,
   "byteLength": 120,
   "byteOffset": 3800,
   "target": 34962
  },
  {
   "buffer": 0,
   "byteLength": 120,
   "byteOffset": 3920,
   "target": 34962
  },
  {
   "buffer": 0,
   "byteLength": 80,
   "byteOffset": 4040,
   "target": 34962
  },
  {
   "buffer": 0,
   "byteLength": 80,
   "byteOffset": 4120,
   "target": 34962
  },
  {
   "buffer": 0,
   "byteLength": 40,
   "byteOffset": 4200,
   "target": 34962
  },
  {
   "buffer": 0,
   "byteLength": 80,
   "byteOffset": 4240,
   "target": 34962
  },
  {
   "buffer": 0,
   "byteLength": 36,
   "byteOffset": 4320,
   "target": 34963
  }
 ],
 "samplers": [
  {
   "magFilter": 9729,
   "minFilter": 9987,
   "wrapS": 10497,
   "wrapT": 10497
  }
 ],
 "buffers": [
  {
   "byteLength": 4356,
   "uri": "Trim_FirstFloor_Wall.bin"
  }
 ]
}